<?xml version="1.0" encoding="utf-8"?>
<!-- Generator: Adobe Illustrator 16.0.0, SVG Export Plug-In . SVG Version: 6.00 Build 0)  -->
<!DOCTYPE svg PUBLIC "-//W3C//DTD SVG 1.1//EN" "http://www.w3.org/Graphics/SVG/1.1/DTD/svg11.dtd">
<svg version="1.1" id="Layer_1" xmlns="http://www.w3.org/2000/svg" xmlns:xlink="http://www.w3.org/1999/xlink" x="0px" y="0px"
	 width="507.05px" height="669.067px" viewBox="0 0 507.05 669.067" enable-background="new 0 0 507.05 669.067"
	 xml:space="preserve">
<g>
	<path fill="#5D5E65" d="M274.032,186.264c5.626,31.61-4.685,50.984-20.621,55.058c-15.943,4.075-34.483-9.247-37.502-19.374
		c-12.192-40.785,2.55-69.113,18.751-75.458C258.101,137.316,269.751,162.215,274.032,186.264L274.032,186.264z M240.28,154.652
		c-12.75,0-25.31,19.375-19.689,50.986c5.628,31.61,23.441,35.684,33.758,30.585c10.31-5.086,21.087-16.825,14.062-45.885
		C262.446,165.688,256.217,154.652,240.28,154.652L240.28,154.652z"/>
	<path fill="#5D5E65" d="M274.032,186.264c5.626,31.61-4.685,50.984-20.621,55.058c-15.943,4.075-34.483-9.247-37.502-19.374
		c-12.192-40.785,2.55-69.113,18.751-75.458C258.101,137.316,269.751,162.215,274.032,186.264L274.032,186.264z M240.28,154.652
		c-12.75,0-25.31,19.375-19.689,50.986c5.628,31.61,23.441,35.684,33.758,30.585c10.31-5.086,21.087-16.825,14.062-45.885
		C262.446,165.688,256.217,154.652,240.28,154.652L240.28,154.652z"/>
	<polygon fill="#5D5E65" points="340.374,166.963 337.677,117.687 100.956,114.465 103.667,456.158 90.14,469.01 87.429,105.907 
		352.552,104.83 352.552,171.228 340.374,166.963 	"/>
	<path fill="#5D5E65" d="M254.291,424.436c3.817-43.744,33.69-110.909,49.139-114.938c-21.046,1.172-54.649,43.48-61.947,119.145
		c-5.568,69.282,9.122,157.138,35.802,175.969c12.31-0.131,23.499-0.614,36.683-5.231c-16.796-0.454-36.49-1.039-36.49-1.039
		C260.563,581.222,246.333,515.57,254.291,424.436L254.291,424.436z"/>
	<path fill="#5D5E65" d="M136.142,460.729c-33.56,53.947-84.529,134.855-103.874,145.729c8.719,18.525,14.86,38.191,44.975,38.045
		c-14.215,6.125-31.266,8.237-57.418-39.978C61.71,563.623,105.147,490.142,136.142,460.729L136.142,460.729z"/>
	<path fill="#5D5E65" d="M191.772,464.628c-12.633,21.601-69.963,97.836-112.433,114.792
		c28.943-16.369,98.13-104.49,114.543-143.803c13.307,69.369,46.17,163.602,67.604,190.039c0,0,40.156-2.303,59.367-14.538
		c-13.321,21.19-60.803,22.804-60.803,22.804C227.165,584.359,201.796,501.368,191.772,464.628L191.772,464.628z"/>
	<path fill="#5D5E65" d="M191.772,464.628c-12.633,21.601-69.963,97.836-112.433,114.792
		c28.943-16.369,98.13-104.49,114.543-143.803c13.307,69.369,46.17,163.602,67.604,190.039c0,0,40.156-2.303,59.367-14.538
		c-13.321,21.19-60.803,22.804-60.803,22.804C227.165,584.359,201.796,501.368,191.772,464.628L191.772,464.628z"/>
	<path fill="#5D5E65" d="M60.427,393.016c0,0,76.345-97.529,199.813-128.671c53.021-13.366,110.249-65.668,147.816-145.78
		c0,0-32.255,131.491-140.196,160.553C251.118,283.616,149.325,312.311,60.427,393.016L60.427,393.016z"/>
	<path fill="#5D5E65" d="M407.054,69.219l-0.688-56.202l28.063,50.01l50.077-13.021L458.42,84.225l37.413,46.27l-55.703-18.491
		l-24.578,50.709l-6.609-47.375l-45.848-12.479L407.054,69.219L407.054,69.219z M392.598,95.451l22.458,4.865l4.864,34.597
		l11.843-35.77l35.068,12.868l-28.438-22.907l17.365-22.106l-24.628,6.133l-15.944-22.466l2.551,31.464L392.598,95.451
		L392.598,95.451z"/>
</g>
</svg>
