<?xml version="1.0" encoding="utf-8"?>
<!-- Generator: Adobe Illustrator 16.0.0, SVG Export Plug-In . SVG Version: 6.00 Build 0)  -->
<!DOCTYPE svg PUBLIC "-//W3C//DTD SVG 1.1//EN" "http://www.w3.org/Graphics/SVG/1.1/DTD/svg11.dtd">
<svg version="1.1" id="Layer_1" xmlns="http://www.w3.org/2000/svg" xmlns:xlink="http://www.w3.org/1999/xlink" x="0px" y="0px"
	 width="486.429px" height="207.143px" viewBox="0 0 486.429 207.143" enable-background="new 0 0 486.429 207.143"
	 xml:space="preserve">
<path fill="#0075BF" d="M82.653,60.324c1.722,9.671-1.433,15.599-6.309,16.845c-4.879,1.246-10.551-2.829-11.475-5.927
	c-3.73-12.479,0.779-21.146,5.737-23.088C77.779,45.347,81.343,52.965,82.653,60.324L82.653,60.324z M72.327,50.651
	c-3.901,0-7.744,5.928-6.024,15.601c1.722,9.671,7.172,10.917,10.328,9.356c3.154-1.556,6.453-5.147,4.303-14.039
	C79.108,54.028,77.203,50.651,72.327,50.651L72.327,50.651z"/>
<path fill="#0075BF" stroke="#0075BF" stroke-width="2.2957" stroke-miterlimit="3.8637" d="M82.653,60.324
	c1.722,9.671-1.433,15.599-6.309,16.845c-4.879,1.246-10.551-2.829-11.475-5.927c-3.73-12.479,0.779-21.146,5.737-23.088
	C77.779,45.347,81.343,52.965,82.653,60.324L82.653,60.324z M72.327,50.651c-3.901,0-7.744,5.928-6.024,15.601
	c1.722,9.671,7.172,10.917,10.328,9.356c3.154-1.556,6.453-5.147,4.303-14.039C79.108,54.028,77.203,50.651,72.327,50.651
	L72.327,50.651z"/>
<polygon fill="#FFC06C" stroke="#FFC06C" stroke-width="1.1479" stroke-miterlimit="3.8637" points="102.95,54.417 102.125,39.341 
	29.7,38.356 30.528,142.897 26.39,146.831 25.561,35.738 106.676,35.408 106.676,55.723 102.95,54.417 "/>
<path fill="#0075BF" stroke="#0075BF" stroke-width="2.2957" stroke-miterlimit="3.8637" d="M76.613,133.194
	c1.168-13.385,10.308-33.933,15.034-35.167c-6.439,0.359-16.72,13.304-18.953,36.454c-1.704,21.197,2.792,48.076,10.954,53.838
	c3.767-0.039,7.189-0.188,11.224-1.6c-5.14-0.139-11.165-0.318-11.165-0.318C78.532,181.163,74.178,161.077,76.613,133.194
	L76.613,133.194z"/>
<path fill="#0075BF" stroke="#0075BF" stroke-width="2.2957" stroke-miterlimit="3.8637" d="M40.464,144.299
	c-10.269,16.504-25.862,41.258-31.78,44.586c2.667,5.668,4.546,11.684,13.76,11.641c-4.35,1.871-9.566,2.52-17.566-12.232
	C17.691,175.778,30.981,153.295,40.464,144.299L40.464,144.299z"/>
<path fill="#0075BF" d="M57.485,145.491c-3.865,6.609-21.406,29.934-34.4,35.121c8.856-5.008,30.024-31.969,35.046-43.996
	c4.071,21.223,14.127,50.055,20.685,58.143c0,0,12.285-0.705,18.164-4.447c-4.077,6.484-18.604,6.977-18.604,6.977
	C68.314,182.124,60.551,156.733,57.485,145.491L57.485,145.491z"/>
<path fill="#0075BF" stroke="#0075BF" stroke-width="2.2957" stroke-miterlimit="3.8637" d="M57.485,145.491
	c-3.865,6.609-21.406,29.934-34.4,35.121c8.856-5.008,30.024-31.969,35.046-43.996c4.071,21.223,14.127,50.055,20.685,58.143
	c0,0,12.285-0.705,18.164-4.447c-4.077,6.484-18.604,6.977-18.604,6.977C68.314,182.124,60.551,156.733,57.485,145.491
	L57.485,145.491z"/>
<path fill="#0075BF" d="M17.299,123.581c0,0,23.357-29.84,61.134-39.368c16.223-4.089,33.732-20.092,45.226-44.603
	c0,0-9.869,40.231-42.894,49.122C75.642,90.109,44.499,98.888,17.299,123.581L17.299,123.581z"/>
<path fill="#FFC06C" d="M123.352,24.512l-0.211-17.195l8.586,15.301l15.321-3.983l-7.981,10.469l11.447,14.157l-17.043-5.657
	l-7.52,15.516l-2.021-14.496l-14.028-3.817L123.352,24.512L123.352,24.512z M118.928,32.538l6.872,1.489l1.488,10.585l3.622-10.943
	l10.731,3.936l-8.702-7.007l5.314-6.764l-7.535,1.876l-4.879-6.874l0.78,9.627L118.928,32.538L118.928,32.538z"/>
<rect x="123.029" y="57.505" fill="none" width="352.135" height="142.188"/>
<text transform="matrix(1 0 0 1 123.0288 106.4419)"><tspan x="0" y="0" fill="#0C72BA" font-family="'ITCGaramondStd-LtCond'" font-size="69.1197">Family Promise</tspan><tspan x="0" y="63.037" fill="#0C72BA" font-family="'ITCGaramondStd-LtCond'" font-size="52.531">of San Gabriel Valley</tspan></text>
<text transform="matrix(1 0 0 1 471.1362 78.481)" fill="#0075BF" font-family="'MyriadPro-Regular'" font-size="24">®</text>
</svg>
