<?xml version="1.0" encoding="utf-8"?>
<!-- Generator: Adobe Illustrator 16.0.0, SVG Export Plug-In . SVG Version: 6.00 Build 0)  -->
<!DOCTYPE svg PUBLIC "-//W3C//DTD SVG 1.1//EN" "http://www.w3.org/Graphics/SVG/1.1/DTD/svg11.dtd">
<svg version="1.1" id="Layer_1" xmlns="http://www.w3.org/2000/svg" xmlns:xlink="http://www.w3.org/1999/xlink" x="0px" y="0px"
	 width="307.768px" height="105.825px" viewBox="0 0 307.768 105.825" enable-background="new 0 0 307.768 105.825"
	 xml:space="preserve">
<path fill="#FFFFFF" d="M4.079,77.512c0,0,64.604-24.077,132.257-2.934c29.05,9.078,71.425,0.91,112.562-26.181
	c0,0-53.564,53.019-113.243,35.407C126.4,81.069,69.746,65.071,4.079,77.512L4.079,77.512z"/>
<path fill="#FFC06C" d="M262.774,24.687L278.8-2.185l-1.23,31.897l27.551,8.389l-22.336,8.649l4.295,32.844l-21.057-24.982
	L239.608,71.53l10.645-24.406l-18.127-19.261L262.774,24.687L262.774,24.687z M248.282,32.929l9.242,8.843l-7.754,17.834
	l16.023-13.529l12.898,16.307l-6.832-19.14l14.674-5.442l-13.473-4.252l-1.031-15.301l-7.941,15.673L248.282,32.929L248.282,32.929z
	"/>
</svg>
